<?xml version="1.0" encoding="UTF-8"?>
<svg version="1.1" xmlns="http://www.w3.org/2000/svg" width="192" height="192">
<path d="M0 0 C2.08248668 0.02145134 4.16151279 0.00005502 6.24389648 -0.02539062 C32.38827673 -0.07990687 54.32467171 11.43254551 72.64819336 29.52148438 C89.55281878 46.39629564 98.96242917 68.49826528 99.21826172 92.38354492 C99.21889842 93.78369353 99.21631656 95.18384691 99.21069336 96.58398438 C99.21046677 97.66590561 99.21046677 97.66590561 99.2102356 98.76968384 C99.15946194 111.13913779 97.56250123 122.09948303 92.64819336 133.52148438 C92.38087402 134.17052734 92.11355469 134.81957031 91.83813477 135.48828125 C82.23655655 158.33402536 62.41873115 177.09070942 39.64819336 186.52148438 C14.08267777 195.78544611 -14.60035189 195.70838895 -39.54223633 184.49609375 C-63.14056418 173.1473689 -80.7669071 152.2055926 -89.71118164 127.81445312 C-92.78835873 118.05890982 -93.59167055 108.97493218 -93.64697266 98.79370117 C-93.65840303 97.33657044 -93.6787103 95.87947853 -93.70849609 94.42260742 C-94.20978649 69.81456994 -84.97769019 47.98978917 -67.96118164 30.23242188 C-67.10008789 29.3378125 -66.23899414 28.44320313 -65.35180664 27.52148438 C-64.77946289 26.874375 -64.20711914 26.22726563 -63.61743164 25.56054688 C-47.86831213 8.26898782 -22.87876682 -0.27871521 0 0 Z " fill="#F8FAFB" transform="translate(93.351806640625,-0.521484375)"/>
<path d="M0 0 C0.65830811 -0.00191345 1.31661621 -0.0038269 1.99487305 -0.00579834 C3.3868854 -0.0071595 4.77891047 -0.00346783 6.17089844 0.00488281 C8.30432589 0.015584 10.43691131 0.00498594 12.5703125 -0.0078125 C13.92187686 -0.00649089 15.2734407 -0.00392847 16.625 0 C18.47544922 0.00338379 18.47544922 0.00338379 20.36328125 0.00683594 C23.3125 0.265625 23.3125 0.265625 25.3125 2.265625 C25.63134766 4.69580078 25.63134766 4.69580078 25.7265625 7.7109375 C25.78457031 9.32548828 25.78457031 9.32548828 25.84375 10.97265625 C25.8746875 12.10058594 25.905625 13.22851562 25.9375 14.390625 C25.99550781 16.09412109 25.99550781 16.09412109 26.0546875 17.83203125 C26.14917601 20.64306456 26.23473541 23.45408733 26.3125 26.265625 C27.38733643 26.295354 27.38733643 26.295354 28.48388672 26.32568359 C31.7188063 26.42072019 34.95306094 26.53048519 38.1875 26.640625 C39.87939453 26.68703125 39.87939453 26.68703125 41.60546875 26.734375 C43.22001953 26.79238281 43.22001953 26.79238281 44.8671875 26.8515625 C45.86218262 26.8829834 46.85717773 26.9144043 47.88232422 26.94677734 C50.3125 27.265625 50.3125 27.265625 52.3125 29.265625 C52.57128906 31.93945312 52.57128906 31.93945312 52.578125 35.296875 C52.58199219 37.10091797 52.58199219 37.10091797 52.5859375 38.94140625 C52.57820313 40.20339844 52.57046875 41.46539062 52.5625 42.765625 C52.57410156 44.65861328 52.57410156 44.65861328 52.5859375 46.58984375 C52.58335937 47.79253906 52.58078125 48.99523437 52.578125 50.234375 C52.57586914 51.34232422 52.57361328 52.45027344 52.57128906 53.59179688 C52.3125 56.265625 52.3125 56.265625 50.3125 58.265625 C47.98999023 58.56860352 47.98999023 58.56860352 45.12109375 58.64453125 C43.58098633 58.69577148 43.58098633 58.69577148 42.00976562 58.74804688 C40.39618164 58.78768555 40.39618164 58.78768555 38.75 58.828125 C36.62357786 58.88779177 34.49726076 58.9513763 32.37109375 59.01953125 C30.95268188 59.05542358 30.95268188 59.05542358 29.50561523 59.09204102 C27.33680201 59.02495313 27.33680201 59.02495313 26.3125 60.265625 C26.17974795 61.80244935 26.10921826 63.34476567 26.06640625 64.88671875 C26.03353516 65.82193359 26.00066406 66.75714844 25.96679688 67.72070312 C25.90572266 69.70496531 25.84841545 71.68934711 25.79492188 73.67382812 C25.76076172 74.61033203 25.72660156 75.54683594 25.69140625 76.51171875 C25.65382202 77.80613892 25.65382202 77.80613892 25.61547852 79.12670898 C25.3125 81.265625 25.3125 81.265625 23.3125 83.265625 C20.36328125 83.52441406 20.36328125 83.52441406 16.625 83.53125 C15.96669189 83.53316345 15.30838379 83.5350769 14.63012695 83.53704834 C13.2381146 83.5384095 11.84608953 83.53471783 10.45410156 83.52636719 C8.32067411 83.515666 6.18808869 83.52626406 4.0546875 83.5390625 C2.70312314 83.53774089 1.3515593 83.53517847 0 83.53125 C-1.23363281 83.52899414 -2.46726563 83.52673828 -3.73828125 83.52441406 C-6.6875 83.265625 -6.6875 83.265625 -8.6875 81.265625 C-8.99047852 79.12670898 -8.99047852 79.12670898 -9.06640625 76.51171875 C-9.10056641 75.57521484 -9.13472656 74.63871094 -9.16992188 73.67382812 C-9.19634766 72.69349609 -9.22277344 71.71316406 -9.25 70.703125 C-9.30967902 68.76419162 -9.37326609 66.82537322 -9.44140625 64.88671875 C-9.46533447 64.0248999 -9.4892627 63.16308105 -9.51391602 62.27514648 C-9.47007832 60.2685035 -9.47007832 60.2685035 -10.6875 59.265625 C-12.45483176 59.12009768 -14.22750994 59.03840031 -16 58.984375 C-17.07507813 58.94699219 -18.15015625 58.90960938 -19.2578125 58.87109375 C-20.38960937 58.83628906 -21.52140625 58.80148438 -22.6875 58.765625 C-24.91680507 58.69707006 -27.14598824 58.6243826 -29.375 58.546875 C-30.36886719 58.51658203 -31.36273438 58.48628906 -32.38671875 58.45507812 C-34.6875 58.265625 -34.6875 58.265625 -35.6875 57.265625 C-35.77525605 55.12003673 -35.79445219 52.97158079 -35.78515625 50.82421875 C-35.78193359 49.51904297 -35.77871094 48.21386719 -35.77539062 46.86914062 C-35.76703401 45.4804681 -35.75856905 44.09179623 -35.75 42.703125 C-35.74498666 41.31054844 -35.74042347 39.91797019 -35.73632812 38.52539062 C-35.72449434 35.1054263 -35.7080088 31.68554656 -35.6875 28.265625 C-33.06026604 26.95200802 -30.96139439 27.05308591 -28.0234375 26.94921875 C-26.90195312 26.90732422 -25.78046875 26.86542969 -24.625 26.82226562 C-23.449375 26.78294922 -22.27375 26.74363281 -21.0625 26.703125 C-19.87914063 26.65994141 -18.69578125 26.61675781 -17.4765625 26.57226562 C-14.54699672 26.46595074 -11.61734412 26.36391858 -8.6875 26.265625 C-8.69797363 25.54906738 -8.70844727 24.83250977 -8.71923828 24.09423828 C-8.76071299 20.85973595 -8.78679892 17.62528947 -8.8125 14.390625 C-8.82925781 13.26269531 -8.84601563 12.13476562 -8.86328125 10.97265625 C-8.86972656 9.89628906 -8.87617187 8.81992188 -8.8828125 7.7109375 C-8.89328613 6.71594238 -8.90375977 5.72094727 -8.91455078 4.69580078 C-8.403366 -0.77552535 -4.53362131 0.00829032 0 0 Z " fill="#F8FAFA" transform="translate(88.6875,57.734375)"/>
<path d="M0 0 C0.79853394 -0.00241196 1.59706787 -0.00482391 2.4197998 -0.00730896 C4.10071806 -0.00633359 5.78166967 0.00698592 7.46240234 0.03198242 C10.0242304 0.06631218 12.58260795 0.05262281 15.14453125 0.03320312 C16.78386874 0.04010212 18.42319738 0.049775 20.0625 0.0625 C20.82203979 0.05754013 21.58157959 0.05258026 22.36413574 0.04747009 C28.50225678 0.18229989 32.14385598 2.24151223 36.53125 6.62890625 C36.75830078 8.78369141 36.75830078 8.78369141 36.7265625 11.41796875 C36.72011719 12.35898437 36.71367188 13.3 36.70703125 14.26953125 C36.68189453 15.74679688 36.68189453 15.74679688 36.65625 17.25390625 C36.64722656 18.24648437 36.63820313 19.2390625 36.62890625 20.26171875 C36.60529116 22.71768759 36.57235799 25.17317793 36.53125 27.62890625 C37.39290771 27.59748535 37.39290771 27.59748535 38.27197266 27.56542969 C40.89988374 27.48176861 43.5275139 27.43009165 46.15625 27.37890625 C47.51169922 27.32863281 47.51169922 27.32863281 48.89453125 27.27734375 C54.78341729 27.19137461 58.04637738 27.71008551 62.53125 31.62890625 C64.12131531 34.80903688 63.71542077 38.24861282 63.734375 41.7421875 C63.74007507 42.5487529 63.74577515 43.3553183 63.75164795 44.18632507 C63.76110195 45.89528083 63.76763352 47.60425485 63.77148438 49.31323242 C63.7811732 51.92073666 63.812185 54.52744703 63.84375 57.13476562 C63.85028185 58.79556824 63.85553161 60.45637649 63.859375 62.1171875 C63.8717218 62.8944368 63.8840686 63.6716861 63.89678955 64.4724884 C63.87824906 69.00666489 63.51860603 72.12158833 60.53125 75.62890625 C57.71522739 76.8102532 54.80014527 76.80914813 51.765625 76.9453125 C50.87617188 76.98720703 49.98671875 77.02910156 49.0703125 77.07226562 C48.14992188 77.11158203 47.22953125 77.15089844 46.28125 77.19140625 C44.87746094 77.25618164 44.87746094 77.25618164 43.4453125 77.32226562 C41.14076359 77.42808675 38.83611161 77.53017182 36.53125 77.62890625 C36.51707031 78.94246094 36.50289063 80.25601563 36.48828125 81.609375 C36.44137012 83.34508676 36.39312279 85.08076277 36.34375 86.81640625 C36.33504883 88.11288086 36.33504883 88.11288086 36.32617188 89.43554688 C36.29716797 90.27666016 36.26816406 91.11777344 36.23828125 91.984375 C36.2225708 92.75418701 36.20686035 93.52399902 36.19067383 94.31713867 C35.1521109 97.95806883 33.55962527 99.38488115 30.53125 101.62890625 C27.41970707 102.34645269 24.39760268 102.3304927 21.21484375 102.29296875 C20.32136734 102.29775238 19.42789093 102.30253601 18.50733948 102.3074646 C16.6237715 102.31085866 14.74014421 102.30169078 12.85668945 102.28076172 C9.9740892 102.2539559 7.09537121 102.28054073 4.21289062 102.3125 C2.38019975 102.30919643 0.54751128 102.30279128 -1.28515625 102.29296875 C-2.57589806 102.30815048 -2.57589806 102.30815048 -3.89271545 102.32363892 C-8.03449814 102.242489 -9.82754229 102.19508228 -13.01831055 99.37768555 C-14.49644991 96.57641116 -14.94437284 95.10804552 -14.859375 91.984375 C-14.84003906 90.72270508 -14.84003906 90.72270508 -14.8203125 89.43554688 C-14.78679687 88.57123047 -14.75328125 87.70691406 -14.71875 86.81640625 C-14.70070313 85.93275391 -14.68265625 85.04910156 -14.6640625 84.13867188 C-14.61713513 81.96828082 -14.54539731 79.79845106 -14.46875 77.62890625 C-15.14454102 77.61432373 -15.82033203 77.59974121 -16.51660156 77.5847168 C-19.58455522 77.51015214 -22.65143076 77.4135197 -25.71875 77.31640625 C-26.78222656 77.29384766 -27.84570312 77.27128906 -28.94140625 77.24804688 C-30.47861328 77.19487305 -30.47861328 77.19487305 -32.046875 77.140625 C-32.98950195 77.11444092 -33.93212891 77.08825684 -34.90332031 77.0612793 C-37.92452726 76.55209034 -39.30587245 75.7847376 -41.46875 73.62890625 C-43.87758876 68.09387301 -42.77552979 60.26428188 -42.81884766 54.27587891 C-42.83541525 52.59800352 -42.86271631 50.92019893 -42.90087891 49.24267578 C-42.95582583 46.81115495 -42.97754353 44.38127785 -42.9921875 41.94921875 C-43.01485687 41.20527863 -43.03752625 40.4613385 -43.06088257 39.69485474 C-43.04543463 35.86065386 -42.55087317 33.19589398 -40.26733398 30.15917969 C-37.23180005 27.41467357 -36.16775788 26.87099991 -32.16796875 26.82421875 C-31.19150391 26.7984375 -30.21503906 26.77265625 -29.20898438 26.74609375 C-28.20158203 26.74867187 -27.19417969 26.75125 -26.15625 26.75390625 C-25.12951172 26.73328125 -24.10277344 26.71265625 -23.04492188 26.69140625 C-20.51871871 26.64440712 -17.99530002 26.6244553 -15.46875 26.62890625 C-15.46987793 26.01893799 -15.47100586 25.40896973 -15.47216797 24.78051758 C-15.46001431 21.99970651 -15.40231916 19.22161118 -15.34375 16.44140625 C-15.34761719 15.0018457 -15.34761719 15.0018457 -15.3515625 13.53320312 C-15.32578125 12.60185547 -15.3 11.67050781 -15.2734375 10.7109375 C-15.26296387 9.85733643 -15.25249023 9.00373535 -15.24169922 8.12426758 C-12.94636947 0.71410795 -6.72180471 -0.11733301 0 0 Z M-6.46875 11.62890625 C-6.74683217 14.1526828 -6.74683217 14.1526828 -6.6640625 17.07421875 C-6.65761719 18.15058594 -6.65117188 19.22695312 -6.64453125 20.3359375 C-6.62777344 21.46386719 -6.61101562 22.59179688 -6.59375 23.75390625 C-6.58472656 24.88957031 -6.57570313 26.02523437 -6.56640625 27.1953125 C-6.54278098 30.00671924 -6.50984013 32.81770923 -6.46875 35.62890625 C-7.21560059 35.6539624 -7.96245117 35.67901855 -8.73193359 35.70483398 C-12.10272267 35.82058838 -15.47321783 35.94340753 -18.84375 36.06640625 C-20.019375 36.10572266 -21.195 36.14503906 -22.40625 36.18554688 C-23.52773438 36.22744141 -24.64921875 36.26933594 -25.8046875 36.3125 C-27.36002197 36.36748657 -27.36002197 36.36748657 -28.94677734 36.42358398 C-31.46300166 36.47054848 -31.46300166 36.47054848 -33.46875 37.62890625 C-33.49340746 41.74063185 -33.51158959 45.85232903 -33.52368164 49.96411133 C-33.5287208 51.36385853 -33.53555216 52.76360045 -33.54418945 54.16333008 C-33.5562732 56.17136402 -33.56144807 58.17943582 -33.56640625 60.1875 C-33.57164307 61.39720459 -33.57687988 62.60690918 -33.58227539 63.85327148 C-33.78650285 66.53702642 -33.78650285 66.53702642 -32.46875 67.62890625 C-30.70141824 67.77443357 -28.92874006 67.85613094 -27.15625 67.91015625 C-26.08117187 67.94753906 -25.00609375 67.98492187 -23.8984375 68.0234375 C-22.76664063 68.05824219 -21.63484375 68.09304687 -20.46875 68.12890625 C-18.23944493 68.19746119 -16.01026176 68.27014865 -13.78125 68.34765625 C-12.78738281 68.37794922 -11.79351562 68.40824219 -10.76953125 68.43945312 C-8.46875 68.62890625 -8.46875 68.62890625 -7.46875 69.62890625 C-7.33599795 71.1657306 -7.26546826 72.70804692 -7.22265625 74.25 C-7.17334961 75.65282227 -7.17334961 75.65282227 -7.12304688 77.08398438 C-7.06197266 79.06824656 -7.00466545 81.05262836 -6.95117188 83.03710938 C-6.89993164 84.44186523 -6.89993164 84.44186523 -6.84765625 85.875 C-6.8226001 86.73794678 -6.79754395 87.60089355 -6.77172852 88.48999023 C-6.65722533 90.84106142 -6.65722533 90.84106142 -4.46875 92.62890625 C-1.3922926 92.94125517 -1.3922926 92.94125517 2.21875 92.89453125 C2.87705811 92.8964447 3.53536621 92.89835815 4.21362305 92.90032959 C5.6056354 92.90169075 6.99766047 92.89799908 8.38964844 92.88964844 C10.52307589 92.87894725 12.65566131 92.88954531 14.7890625 92.90234375 C16.14062686 92.90102214 17.4921907 92.89845972 18.84375 92.89453125 C20.07738281 92.89227539 21.31101563 92.89001953 22.58203125 92.88769531 C25.65194578 92.93660392 25.65194578 92.93660392 27.53125 90.62890625 C27.88493016 88.41817739 27.88493016 88.41817739 27.91015625 85.875 C27.94431641 84.93849609 27.97847656 84.00199219 28.01367188 83.03710938 C28.04009766 82.05677734 28.06652344 81.07644531 28.09375 80.06640625 C28.15342902 78.12747287 28.21701609 76.18865447 28.28515625 74.25 C28.30908447 73.38818115 28.3330127 72.5263623 28.35766602 71.63842773 C28.53125 69.62890625 28.53125 69.62890625 29.53125 68.62890625 C31.21417885 68.49570327 32.90219189 68.42551784 34.58984375 68.3828125 C35.61529297 68.34994141 36.64074219 68.31707031 37.69726562 68.28320312 C39.87424581 68.22211771 42.05133542 68.16481188 44.22851562 68.11132812 C45.25525391 68.07716797 46.28199219 68.04300781 47.33984375 68.0078125 C48.75994751 67.97022827 48.75994751 67.97022827 50.20874023 67.93188477 C52.72266424 67.84395635 52.72266424 67.84395635 54.53125 65.62890625 C54.84303425 62.84582877 54.84303425 62.84582877 54.796875 59.59765625 C54.80074219 57.79361328 54.80074219 57.79361328 54.8046875 55.953125 C54.79308594 54.06013672 54.79308594 54.06013672 54.78125 52.12890625 C54.78898437 50.86691406 54.79671875 49.60492188 54.8046875 48.3046875 C54.80210937 47.10199219 54.79953125 45.89929688 54.796875 44.66015625 C54.79349121 42.99823242 54.79349121 42.99823242 54.79003906 41.30273438 C54.80242301 38.47628043 54.80242301 38.47628043 52.53125 36.62890625 C50.01087036 36.2575471 50.01087036 36.2575471 47.0859375 36.21484375 C45.47138672 36.15683594 45.47138672 36.15683594 43.82421875 36.09765625 C42.69628906 36.06671875 41.56835938 36.03578125 40.40625 36.00390625 C38.70275391 35.94589844 38.70275391 35.94589844 36.96484375 35.88671875 C34.15381044 35.79223024 31.34278767 35.70667084 28.53125 35.62890625 C28.501521 34.55406982 28.501521 34.55406982 28.47119141 33.45751953 C28.37615481 30.22259995 28.26638981 26.98834531 28.15625 23.75390625 C28.1253125 22.62597656 28.094375 21.49804688 28.0625 20.3359375 C28.00449219 18.72138672 28.00449219 18.72138672 27.9453125 17.07421875 C27.9138916 16.07922363 27.8824707 15.08422852 27.85009766 14.05908203 C27.75877917 11.45036108 27.75877917 11.45036108 25.53125 9.62890625 C22.4547926 9.31655733 22.4547926 9.31655733 18.84375 9.36328125 C18.18544189 9.3613678 17.52713379 9.35945435 16.84887695 9.35748291 C15.4568646 9.35612175 14.06483953 9.35981342 12.67285156 9.36816406 C10.53942411 9.37886525 8.40683869 9.36826719 6.2734375 9.35546875 C4.92187314 9.35679036 3.5703093 9.35935278 2.21875 9.36328125 C0.36830078 9.36666504 0.36830078 9.36666504 -1.51953125 9.37011719 C-4.58944578 9.32120858 -4.58944578 9.32120858 -6.46875 11.62890625 Z " fill="#123540" transform="translate(86.46875,48.37109375)"/>
<path d="M0 0 C0.80953125 0.63164063 1.6190625 1.26328125 2.453125 1.9140625 C3.88398438 2.98527344 3.88398438 2.98527344 5.34375 4.078125 C11.0141971 8.49015737 15.53844159 12.89937399 19.453125 18.9140625 C20.53583613 20.56030521 21.6191719 22.20613728 22.703125 23.8515625 C23.18265625 24.60308594 23.6621875 25.35460937 24.15625 26.12890625 C25.34324025 28.0511115 25.34324025 28.0511115 27.453125 28.9140625 C28.015625 30.734375 28.015625 30.734375 28.453125 33.0390625 C28.99077755 35.81373369 29.60748582 38.37714497 30.50390625 41.06640625 C31.6990178 45.91078846 31.70768613 50.3855094 31.640625 55.3515625 C31.6396582 56.70604492 31.6396582 56.70604492 31.63867188 58.08789062 C31.5843346 66.42564405 31.08414077 73.61323603 27.328125 81.2265625 C27.01391602 81.87463867 26.69970703 82.52271484 26.37597656 83.19042969 C16.84798658 102.46533451 3.80119331 114.48027606 -16.16796875 122.125 C-16.95300781 122.38539063 -17.73804687 122.64578125 -18.546875 122.9140625 C-19.54203125 123.27113281 -20.5371875 123.62820312 -21.5625 123.99609375 C-26.88869075 125.48373666 -32.37236735 125.24280586 -37.859375 125.2265625 C-39.47489258 125.25073242 -39.47489258 125.25073242 -41.12304688 125.27539062 C-57.96556576 125.28559203 -73.74989417 117.74636794 -85.796875 106.1015625 C-93.52866334 97.99052505 -98.95715662 89.10880059 -103.546875 78.9140625 C-103.88976562 78.16511719 -104.23265625 77.41617188 -104.5859375 76.64453125 C-107.23243848 69.97881148 -107.05247276 62.99243115 -106.546875 55.9140625 C-106.051875 55.4190625 -106.051875 55.4190625 -105.546875 54.9140625 C-103.20742764 55.20136305 -100.8729607 55.53343029 -98.546875 55.9140625 C-98.46050781 56.92984375 -98.37414062 57.945625 -98.28515625 58.9921875 C-96.56633878 76.71438476 -89.5194651 92.35126858 -75.546875 103.9140625 C-68.3071311 109.10088028 -61.25808113 112.97289134 -52.546875 114.9140625 C-51.94319092 115.08462158 -51.33950684 115.25518066 -50.7175293 115.4309082 C-46.51889285 116.36546017 -42.20578503 116.14130601 -37.921875 116.1640625 C-36.97441406 116.1846875 -36.02695313 116.2053125 -35.05078125 116.2265625 C-19.43860872 116.31199162 -5.01015958 109.29294336 6.0546875 98.50390625 C16.70615409 87.00240405 22.7518625 73.4291153 22.60546875 57.78125 C21.88809155 39.5709058 16.34215329 25.77654298 3.0859375 13.08203125 C-12.31314558 0.40177738 -30.03002245 -2.88953769 -49.546875 -1.0859375 C-54.12498772 -0.37126912 -58.31315035 1.03789298 -62.546875 2.9140625 C-63.34867188 3.2646875 -64.15046875 3.6153125 -64.9765625 3.9765625 C-75.41805433 9.17924355 -86.28854277 19.39739803 -91.546875 29.9140625 C-92.24266954 32.10536784 -92.24266954 32.10536784 -92.546875 33.9140625 C-94.54642246 33.95660606 -96.54729136 33.95487033 -98.546875 33.9140625 C-99.546875 32.9140625 -99.546875 32.9140625 -99.81640625 30.20703125 C-99.02471463 20.53462489 -89.03278056 11.32252678 -82.09472656 5.20458984 C-59.20193228 -13.88236766 -24.97811575 -17.83029017 0 0 Z " fill="#193C44" transform="translate(134.546875,42.0859375)"/>
<path d="M0 0 C2.33944736 0.28730055 4.6739143 0.61936779 7 1 C6.02432406 5.97594731 3.54229507 10.3632661 1.375 14.90625 C-0.14223943 18.08054676 -0.14223943 18.08054676 -1 22 C4.28 22 9.56 22 15 22 C13.57535331 26.27394008 12.32987838 29.51581899 10.21484375 33.36328125 C9.68439453 34.33201172 9.15394531 35.30074219 8.60742188 36.29882812 C8.05634766 37.29333984 7.50527344 38.28785156 6.9375 39.3125 C6.38255859 40.32634766 5.82761719 41.34019531 5.25585938 42.38476562 C1.15162295 49.84837705 1.15162295 49.84837705 0 51 C-1.66617115 51.04063832 -3.33388095 51.042721 -5 51 C-4.57534294 43.63927766 -2.01651083 37.67862176 1 31 C-0.37285156 31.01740234 -0.37285156 31.01740234 -1.7734375 31.03515625 C-3.55621094 31.04869141 -3.55621094 31.04869141 -5.375 31.0625 C-6.55835937 31.07410156 -7.74171875 31.08570312 -8.9609375 31.09765625 C-12 31 -12 31 -14 30 C-13.38322878 26.01819754 -12.12472659 22.88684355 -10.3125 19.296875 C-9.77882813 18.2346875 -9.24515625 17.1725 -8.6953125 16.078125 C-7.85613281 14.43070313 -7.85613281 14.43070313 -7 12.75 C-6.16082031 11.079375 -6.16082031 11.079375 -5.3046875 9.375 C-1.1541718 1.1541718 -1.1541718 1.1541718 0 0 Z " fill="#133941" transform="translate(96,73)"/>
<path d="M0 0 C0.87109375 2.140625 0.87109375 2.140625 1 5 C-0.93106959 7.19119782 -2.71423239 8.90387779 -4.9375 10.75 C-6.14970519 11.81609553 -7.35934359 12.88511668 -8.56640625 13.95703125 C-9.15824707 14.4773291 -9.75008789 14.99762695 -10.35986328 15.53369141 C-17.98029427 22.34647922 -22.52117249 29.94437064 -27 39 C-28.65 39 -30.3 39 -32 39 C-32.54970009 30.08700569 -27.31090681 23.52746636 -21.6640625 17.09765625 C-17.06986794 12.05340055 -12.36090326 7.1483039 -7.3125 2.5546875 C-6.77238281 2.06210449 -6.23226562 1.56952148 -5.67578125 1.06201172 C-4 0 -4 0 0 0 Z " fill="#3FA6D9" transform="translate(53,31)"/>
<path d="M0 0 C9.07852414 1.04689287 16.46681171 9.95217987 22.14453125 16.58984375 C32.18200027 29.62798772 32.18200027 29.62798772 32 38 C30.35 38 28.7 38 27 38 C26.72027344 37.38253906 26.44054687 36.76507813 26.15234375 36.12890625 C19.91565237 22.95364504 10.11666013 13.22446266 -1 4 C-0.67 2.68 -0.34 1.36 0 0 Z " fill="#52AADA" transform="translate(141,32)"/>
<path d="M0 0 C1.99954746 -0.04254356 4.00041636 -0.04080783 6 0 C6.33 0.33 6.66 0.66 7 1 C6.67512039 4.8335794 6.31460303 8.13484168 5 11.75 C3.46720074 16.73159758 3.31870789 21.81680327 3 27 C0.36 27.66 -2.28 28.32 -5 29 C-5 23.06 -5 17.12 -5 11 C-2.69 11 -0.38 11 2 11 C2.33 9.02 2.66 7.04 3 5 C2.01 5 1.02 5 0 5 C0 3.35 0 1.7 0 0 Z " fill="#4DAADC" transform="translate(5,70)"/>
<path d="M0 0 C5.1235063 9.77341117 4.20785835 20.29529488 4 31 C-0.875 30.125 -0.875 30.125 -2 29 C-2.18541131 27.10762741 -2.32310701 25.21048989 -2.4375 23.3125 C-2.76425748 18.84857118 -3.55643601 15.23445436 -5 11 C-5.1627231 8.30767228 -5.09314029 5.70106831 -5 3 C-3.35 2.67 -1.7 2.34 0 2 C0 1.34 0 0.68 0 0 Z " fill="#6BBAD7" transform="translate(188,67)"/>
<path d="M0 0 C2.97 0.495 2.97 0.495 6 1 C6 6.28 6 11.56 6 17 C1 16 1 16 0 15 C-0.07313567 12.46950598 -0.09247527 9.96695163 -0.0625 7.4375 C-0.05798828 6.72658203 -0.05347656 6.01566406 -0.04882812 5.28320312 C-0.03700864 3.52209987 -0.01907263 1.76103964 0 0 Z " fill="#62B6D6" transform="translate(186,81)"/>
<path d="M0 0 C0.33 1.65 0.66 3.3 1 5 C-2.51187196 7.40814077 -4.72656908 8.36629408 -9 8 C-9.33 6.02 -9.66 4.04 -10 2 C-6.5980513 -0.09350689 -3.94727588 -0.17942163 0 0 Z " fill="#46A5DC" transform="translate(12,116)"/>
<path d="M0 0 C1.67542976 0.28604898 3.34385343 0.61781233 5 1 C5.33 3.97 5.66 6.94 6 10 C4.00045254 10.04254356 1.99958364 10.04080783 0 10 C-1 9 -1 9 -1.1328125 7.1875 C-1.13023437 6.465625 -1.12765625 5.74375 -1.125 5 C-1.12757813 4.278125 -1.13015625 3.55625 -1.1328125 2.8125 C-1 1 -1 1 0 0 Z " fill="#91C9E4" transform="translate(186,102)"/>
<path d="M0 0 C2.97 0.33 5.94 0.66 9 1 C9 5 9 5 8 7 C1.125 6.125 1.125 6.125 0 5 C-0.04063832 3.33382885 -0.042721 1.66611905 0 0 Z " fill="#58ADD5" transform="translate(112,19)"/>
<path d="M0 0 C2.05078125 0.03255208 4.1015625 0.06510417 6.15234375 0.09765625 C5.82234375 2.40765625 5.49234375 4.71765625 5.15234375 7.09765625 C2.84234375 6.76765625 0.53234375 6.43765625 -1.84765625 6.09765625 C-2.22984392 4.44150968 -2.56160727 2.77308601 -2.84765625 1.09765625 C-1.84765625 0.09765625 -1.84765625 0.09765625 0 0 Z " fill="#56B0E5" transform="translate(183.84765625,116.90234375)"/>
<path d="M0 0 C1.65 0.33 3.3 0.66 5 1 C5 3.31 5 5.62 5 8 C2.36 8.99 -0.28 9.98 -3 11 C-3.33 9.68 -3.66 8.36 -4 7 C-2.68 7 -1.36 7 0 7 C0 4.69 0 2.38 0 0 Z " fill="#279CD7" transform="translate(4,102)"/>
<path d="M0 0 C0.125 2.375 0.125 2.375 0 5 C-2 7 -2 7 -5.125 7.125 C-6.548125 7.063125 -6.548125 7.063125 -8 7 C-8.33 5.02 -8.66 3.04 -9 1 C-5.8035914 -0.06546953 -3.34252724 -0.07427838 0 0 Z " fill="#56ACD1" transform="translate(82,19)"/>
<path d="M0 0 C2.5625 0.1875 2.5625 0.1875 4.5625 2.1875 C4.1875 4.8125 4.1875 4.8125 3.5625 7.1875 C1.1875 7.8125 1.1875 7.8125 -1.4375 8.1875 C-3.4375 6.1875 -3.4375 6.1875 -3.625 3.625 C-3.37291261 0.34786389 -3.27713611 0.25208739 0 0 Z " fill="#75BADB" transform="translate(13.4375,126.8125)"/>
<path d="M0 0 C0 3 0 3 -1.42114258 4.79345703 C-2.07236084 5.44169434 -2.7235791 6.08993164 -3.39453125 6.7578125 C-4.10287109 7.46550781 -4.81121094 8.17320313 -5.54101562 8.90234375 C-6.29060547 9.63582031 -7.04019531 10.36929688 -7.8125 11.125 C-8.55048828 11.86621094 -9.28847656 12.60742188 -10.04882812 13.37109375 C-15.59948467 18.86649489 -15.59948467 18.86649489 -19 20 C-17.70159182 17.13877912 -16.3291723 15.0807105 -14.1015625 12.87109375 C-13.53953125 12.31099609 -12.9775 11.75089844 -12.3984375 11.17382812 C-11.81320313 10.60083984 -11.22796875 10.02785156 -10.625 9.4375 C-10.0475 8.86064453 -9.47 8.28378906 -8.875 7.68945312 C-6.054474 4.89790513 -3.27414036 2.26609222 0 0 Z " fill="#D3F1F9" transform="translate(53,36)"/>
<path d="M0 0 C0.33 1.65 0.66 3.3 1 5 C0.01 5.495 0.01 5.495 -1 6 C-1 5.01 -1 4.02 -1 3 C-1.9075 3.804375 -2.815 4.60875 -3.75 5.4375 C-6.180913 7.47946692 -7.87783602 8.35403504 -11 9 C-12.73026102 10.47890069 -12.73026102 10.47890069 -14 12 C-14.66 11.67 -15.32 11.34 -16 11 C-14.09417463 9.15410624 -12.17681639 7.32375412 -10.25 5.5 C-9.71117187 4.97535156 -9.17234375 4.45070313 -8.6171875 3.91015625 C-4.453125 0 -4.453125 0 0 0 Z " fill="#69B2D6" transform="translate(53,31)"/>
<path d="M0 0 C2.5 0.125 2.5 0.125 3.5 1.125 C3.6875 3.5625 3.6875 3.5625 3.5 6.125 C2.84 6.785 2.18 7.445 1.5 8.125 C-2.03571429 7.58928571 -2.03571429 7.58928571 -3.5 6.125 C-3.625 3.625 -3.625 3.625 -3.5 1.125 C-2.5 0.125 -2.5 0.125 0 0 Z " fill="#52A5D3" transform="translate(180.5,126.875)"/>
<path d="M0 0 C1.98 0 3.96 0 6 0 C6 1.98 6 3.96 6 6 C3.625 6.625 3.625 6.625 1 7 C0.34 6.34 -0.32 5.68 -1 5 C-0.625 2.375 -0.625 2.375 0 0 Z " fill="#6CB7D5" transform="translate(88,17)"/>
<path d="M0 0 C-1.612328 4.03082 -4.46234596 6.75944137 -7.5 9.75 C-7.99886719 10.25660156 -8.49773438 10.76320313 -9.01171875 11.28515625 C-12.74658861 15 -12.74658861 15 -15 15 C-13.387672 10.96918 -10.53765404 8.24055863 -7.5 5.25 C-7.00113281 4.74339844 -6.50226562 4.23679687 -5.98828125 3.71484375 C-2.25341139 0 -2.25341139 0 0 0 Z " fill="#D5E0E3" transform="translate(62,51)"/>
<path d="M0 0 C1.67542976 0.28604898 3.34385343 0.61781233 5 1 C5 2.65 5 4.3 5 6 C2.625 6.625 2.625 6.625 0 7 C-0.66 6.34 -1.32 5.68 -2 5 C-1.46428571 1.46428571 -1.46428571 1.46428571 0 0 Z " fill="#60B0DD" transform="translate(168,141)"/>
<path d="M0 0 C1.2065625 0.0309375 1.2065625 0.0309375 2.4375 0.0625 C2.81968767 1.71864657 3.15145102 3.38707024 3.4375 5.0625 C2.4375 6.0625 2.4375 6.0625 -0.125 6.125 C-1.3315625 6.0940625 -1.3315625 6.0940625 -2.5625 6.0625 C-2.94468767 4.40635343 -3.27645102 2.73792976 -3.5625 1.0625 C-2.5625 0.0625 -2.5625 0.0625 0 0 Z " fill="#56ADD2" transform="translate(23.5625,38.9375)"/>
<path d="M0 0 C0.66 0.33 1.32 0.66 2 1 C0.61240749 2.61130023 -0.78545623 4.21375841 -2.1875 5.8125 C-2.96480469 6.70582031 -3.74210937 7.59914063 -4.54296875 8.51953125 C-6.89417119 10.8931617 -9.06791184 12.43240047 -12 14 C-10.41332422 10.09714233 -7.86649519 7.66479018 -4.875 4.75 C-3.96492188 3.85796875 -3.05484375 2.9659375 -2.1171875 2.046875 C-1.41851562 1.37140625 -0.71984375 0.6959375 0 0 Z " fill="#3D605E" transform="translate(54,46)"/>
<path d="M0 0 C1.98 0 3.96 0 6 0 C6.625 1.875 6.625 1.875 7 4 C6.34 4.66 5.68 5.32 5 6 C2.375 5.625 2.375 5.625 0 5 C0 3.35 0 1.7 0 0 Z " fill="#3CADE2" transform="translate(168,39)"/>
<path d="M0 0 C-0.33 1.65 -0.66 3.3 -1 5 C-2.65 5 -4.3 5 -6 5 C-6.33 3.35 -6.66 1.7 -7 0 C-4.3333581 -1.33332095 -2.83319697 -0.67102033 0 0 Z " fill="#45A0CB" transform="translate(107,18)"/>
<path d="M0 0 C1.67542976 0.28604898 3.34385343 0.61781233 5 1 C5 2.65 5 4.3 5 6 C3.02 6 1.04 6 -1 6 C-1.042721 4.33388095 -1.04063832 2.66617115 -1 1 C-0.67 0.67 -0.34 0.34 0 0 Z " fill="#52ACDB" transform="translate(23,141)"/>
<path d="M0 0 C0.99 0.495 0.99 0.495 2 1 C2.33333333 2.33333333 2.66666667 3.66666667 3 5 C3.66 5.33 4.32 5.66 5 6 C5 7.32 5 8.64 5 10 C3.35 9.67 1.7 9.34 0 9 C0 6.03 0 3.06 0 0 Z " fill="#38A6D4" transform="translate(187,88)"/>
<path d="M0 0 C1.98 0 3.96 0 6 0 C5.67 2.64 5.34 5.28 5 8 C4.34 8 3.68 8 3 8 C3 6.35 3 4.7 3 3 C2.01 3 1.02 3 0 3 C0 2.01 0 1.02 0 0 Z " fill="#3BA1DE" transform="translate(6,71)"/>
<path d="M0 0 C-1.875 3.875 -1.875 3.875 -3 5 C-3.23701239 7.85877909 -3.42219182 10.69883297 -3.5625 13.5625 C-3.60568359 14.36880859 -3.64886719 15.17511719 -3.69335938 16.00585938 C-3.79975262 18.00368805 -3.90040888 20.0018207 -4 22 C-4.33 22 -4.66 22 -5 22 C-5.08710289 18.89601022 -5.14042309 15.79233452 -5.1875 12.6875 C-5.21263672 11.80642578 -5.23777344 10.92535156 -5.26367188 10.01757812 C-5.27333984 9.17001953 -5.28300781 8.32246094 -5.29296875 7.44921875 C-5.3086792 6.66893311 -5.32438965 5.88864746 -5.34057617 5.0847168 C-4.8182622 1.88755625 -3.33053843 0 0 0 Z " fill="#254950" transform="translate(77,51)"/>
<path d="M0 0 C1.67542976 0.28604898 3.34385343 0.61781233 5 1 C5 1.99 5 2.98 5 4 C3.02 4.99 1.04 5.98 -1 7 C-1.04254356 5.00045254 -1.04080783 2.99958364 -1 1 C-0.67 0.67 -0.34 0.34 0 0 Z " fill="#2E9EC6" transform="translate(185,70)"/>
<path d="M0 0 C1.32 0 2.64 0 4 0 C4 2.31 4 4.62 4 7 C2.68 7 1.36 7 0 7 C0 4.69 0 2.38 0 0 Z " fill="#EAF6FA" transform="translate(0,87)"/>
<path d="M0 0 C0.99 0.33 1.98 0.66 3 1 C3.33 2.98 3.66 4.96 4 7 C2.35 6.67 0.7 6.34 -1 6 C-1.042721 4.33388095 -1.04063832 2.66617115 -1 1 C-0.67 0.67 -0.34 0.34 0 0 Z " fill="#E7F5F9" transform="translate(188,74)"/>
<path d="M0 0 C0.33 0.99 0.66 1.98 1 3 C-3.10526316 8.70175439 -3.10526316 8.70175439 -7 10 C-5.6062718 5.56541027 -3.39417765 3.12621626 0 0 Z " fill="#5AAED2" transform="translate(33,47)"/>
<path d="M0 0 C2.475 0.495 2.475 0.495 5 1 C5 3.31 5 5.62 5 8 C4.67 8 4.34 8 4 8 C3.67 6.35 3.34 4.7 3 3 C2.67 3.99 2.34 4.98 2 6 C1.34 6 0.68 6 0 6 C0 4.02 0 2.04 0 0 Z " fill="#61B9E3" transform="translate(4,102)"/>
<path d="M0 0 C0.33 0 0.66 0 1 0 C1 2.64 1 5.28 1 8 C0.360625 8.12375 -0.27875 8.2475 -0.9375 8.375 C-1.618125 8.58125 -2.29875 8.7875 -3 9 C-3.33 9.66 -3.66 10.32 -4 11 C-4.66 11 -5.32 11 -6 11 C-6 9.68 -6 8.36 -6 7 C-4.35 7 -2.7 7 -1 7 C-0.67 4.69 -0.34 2.38 0 0 Z " fill="#2798DA" transform="translate(6,88)"/>
<path d="M0 0 C0.99 0 1.98 0 3 0 C3.33 2.31 3.66 4.62 4 7 C2.68 7 1.36 7 0 7 C0 4.69 0 2.38 0 0 Z " fill="#2C96CA" transform="translate(186,103)"/>
<path d="M0 0 C1.32 0 2.64 0 4 0 C4 1.65 4 3.3 4 5 C2.68 5 1.36 5 0 5 C0 3.35 0 1.7 0 0 Z " fill="#8AD4EB" transform="translate(128,23)"/>
<path d="M0 0 C1.32 0.33 2.64 0.66 4 1 C4 2.32 4 3.64 4 5 C2.68 5 1.36 5 0 5 C0 3.35 0 1.7 0 0 Z " fill="#3A9DD9" transform="translate(12,128)"/>
<path d="M0 0 C-0.33 1.65 -0.66 3.3 -1 5 C-0.01 5.66 0.98 6.32 2 7 C0.35 7 -1.3 7 -3 7 C-3.33 5.02 -3.66 3.04 -4 1 C-2 0 -2 0 0 0 Z " fill="#5EB2DF" transform="translate(6,117)"/>
<path d="M0 0 C1.32 0 2.64 0 4 0 C4 1.32 4 2.64 4 4 C2.35 4 0.7 4 -1 4 C-0.67 2.68 -0.34 1.36 0 0 Z " fill="#1F92CA" transform="translate(90,18)"/>
</svg>
